<svg width="128" height="24" viewBox="0 0 128 24" fill="none" xmlns="http://www.w3.org/2000/svg">
<path d="M25.71 6.70035C21.0823 6.70035 17.4665 10.4054 17.4665 15.3654C17.4665 20.3254 20.991 23.9988 25.71 23.9988C30.429 23.9988 34.0148 20.262 34.0148 15.3337C34.0148 10.4371 30.4903 6.70035 25.71 6.70035ZM25.7412 20.4242C23.1059 20.4242 21.1748 18.2656 21.1748 15.3666C21.1748 12.4348 23.0747 10.2774 25.71 10.2774C28.3765 10.2774 30.3064 12.4677 30.3064 15.3666C30.3064 18.2656 28.3765 20.4242 25.7412 20.4242ZM35.0255 10.47H37.3241V23.678H41.0012V7.02233H35.0255V10.47ZM8.2123 10.2761C10.1434 10.2761 11.6755 11.5323 12.2572 13.4007H16.1494C15.444 9.40658 12.3185 6.70035 8.24352 6.70035C3.61586 6.70035 0 10.4054 0 15.3666C0 20.3279 3.52451 24 8.24352 24C12.2271 24 15.414 21.2938 16.1193 17.2667H12.2572C11.7056 19.1351 10.1734 20.4242 8.24238 20.4242C5.57586 20.4242 3.7072 18.2656 3.7072 15.3666C3.70837 12.4348 5.54695 10.2761 8.2123 10.2761ZM104.893 13.7556L102.197 13.3373C100.91 13.1446 99.9907 12.6933 99.9907 11.6299C99.9907 10.47 101.186 9.89074 102.81 9.89074C104.587 9.89074 105.722 10.6957 105.967 12.0165H109.521C109.122 8.66629 106.671 6.70155 102.902 6.70155C99.0101 6.70155 96.4362 8.79559 96.4362 11.7591C96.4362 14.5934 98.1219 16.2374 101.523 16.7521L104.219 17.1704C105.538 17.3631 106.273 17.9119 106.273 18.9424C106.273 20.2632 104.986 20.8108 103.209 20.8108C101.033 20.8108 99.8069 19.8766 99.6231 18.4595H96.0071C96.3449 21.7133 98.7651 24 103.178 24C107.193 24 109.858 22.067 109.858 18.7485C109.858 15.7849 107.928 14.2385 104.893 13.7556ZM39.1627 0.160984C37.8144 0.160984 36.8028 1.19152 36.8028 2.60867C36.8028 4.02581 37.8133 5.05635 39.1627 5.05635C40.5109 5.05635 41.5228 4.02581 41.5228 2.60867C41.5228 1.19152 40.5109 0.160984 39.1627 0.160984ZM93.1267 12.725C93.1267 9.11753 91.0432 6.70155 86.6304 6.70155C82.4629 6.70155 80.134 8.92485 79.6739 12.3396H83.3209C83.5047 11.0189 84.4853 9.92366 86.5692 9.92366C88.4391 9.92366 89.3582 10.7932 89.3582 11.8567C89.3582 13.2422 87.6722 13.5958 85.5886 13.8215C82.7694 14.1434 79.2761 15.1739 79.2761 19.04C79.2761 22.0365 81.3909 23.9683 84.7619 23.9683C87.397 23.9683 89.0517 22.8085 89.8798 20.9718C90.0025 22.6146 91.1669 23.678 92.7915 23.678H94.9365V20.2315H93.1278V12.725H93.1267ZM89.5107 16.9131C89.5107 19.1363 87.6722 20.7791 85.4346 20.7791C84.0555 20.7791 82.891 20.1669 82.891 18.879C82.891 17.2362 84.7605 16.785 86.4768 16.5923C88.1315 16.4313 89.0506 16.0447 89.5107 15.3032V16.9131ZM69.9907 6.70035C67.937 6.70035 66.2211 7.60283 64.9955 9.11633V0H61.3184V23.678H64.934V21.4877C66.1596 23.0658 67.9072 24 69.9907 24C74.4032 24 77.744 20.3279 77.744 15.3666C77.744 10.4054 74.342 6.70035 69.9907 6.70035ZM69.4393 20.4242C66.8039 20.4242 64.8729 18.2656 64.8729 15.3666C64.8729 12.4677 66.8341 10.2774 69.4691 10.2774C72.1358 10.2774 74.0042 12.436 74.0042 15.3666C74.0042 18.2656 72.0743 20.4242 69.4393 20.4242ZM52.523 6.70035C50.133 6.70035 48.5696 7.73089 47.6505 9.18094V7.02233H44.0032V23.6768H47.6803V14.6252C47.6803 12.0799 49.2124 10.2761 51.4802 10.2761C53.595 10.2761 54.912 11.8543 54.912 14.1422V23.678H58.5891V13.8531C58.5906 9.6639 56.5379 6.70035 52.523 6.70035ZM127.387 14.8191C127.387 10.0517 124.077 6.70155 119.633 6.70155C114.914 6.70155 111.451 10.4383 111.451 15.3666C111.451 20.5535 115.159 24 119.695 24C123.526 24 126.529 21.6157 127.294 18.2339H123.463C122.912 19.7156 121.563 20.5535 119.755 20.5535C117.395 20.5535 115.617 19.0071 115.22 16.3008H127.386V14.8191H127.387ZM115.435 13.53C116.018 11.2103 117.672 10.0835 119.572 10.0835C121.656 10.0835 123.249 11.3396 123.617 13.53H115.435Z" fill="white"/>
</svg>
